<?xml version="1.0" standalone="no"?>
<!DOCTYPE svg PUBLIC "-//W3C//DTD SVG 20010904//EN"
 "http://www.w3.org/TR/2001/REC-SVG-20010904/DTD/svg10.dtd">
<svg version="1.0" xmlns="http://www.w3.org/2000/svg"
 width="398.000000pt" height="97.000000pt" viewBox="0 0 398.000000 97.000000"
 preserveAspectRatio="xMidYMid meet">

<g transform="translate(0.000000,97.000000) scale(0.100000,-0.100000)"
fill="#000000" stroke="none">
<path d="M509 771 c-13 -10 -30 -16 -37 -14 -18 7 -59 -23 -67 -48 -4 -12 -25
-39 -48 -60 l-40 -39 6 -66 c6 -75 26 -111 74 -133 17 -8 36 -24 42 -37 16
-36 68 -58 138 -59 53 -1 65 -5 89 -28 15 -15 31 -27 35 -27 5 0 20 -21 33
-47 28 -54 34 -51 11 4 -13 31 -13 34 0 23 8 -7 15 -9 15 -5 0 19 29 -20 33
-43 4 -26 4 -26 6 3 1 29 3 30 40 27 54 -5 98 19 149 84 31 40 42 63 42 88 0
19 4 46 9 59 12 32 -2 88 -29 112 -11 10 -20 31 -20 47 0 29 -38 78 -61 78 -6
0 -20 11 -31 25 -11 14 -29 30 -40 36 -28 15 -126 30 -234 35 -78 3 -95 1
-115 -15z m105 0 c14 -5 16 -10 8 -15 -7 -4 -12 -15 -12 -24 1 -13 6 -10 21
11 16 21 29 27 58 27 46 0 61 -14 61 -57 0 -26 -4 -33 -19 -33 -10 0 -21 7
-25 15 -3 8 -10 15 -16 15 -7 0 -8 -6 0 -19 5 -11 7 -27 3 -36 -5 -15 -15 -16
-62 -12 -53 6 -55 6 -33 -10 12 -8 22 -21 22 -29 0 -20 39 -39 53 -25 8 8 7
11 -5 11 -8 0 -21 6 -27 14 -10 12 -7 15 21 18 20 2 36 10 43 23 15 31 115 35
144 6 30 -30 26 -49 -11 -65 l-33 -14 45 -1 c58 -1 90 -23 90 -61 0 -16 -4
-32 -10 -35 -17 -10 -11 -50 10 -73 23 -25 35 -27 46 -10 4 6 3 8 -3 5 -6 -4
-19 3 -29 14 -15 17 -16 24 -6 53 19 51 14 72 -22 103 -18 15 -36 40 -40 56
-9 37 -40 67 -70 67 -26 0 -40 14 -49 48 -4 17 -1 22 13 22 54 0 130 -57 130
-97 0 -13 5 -23 11 -23 6 0 9 9 6 20 -7 28 8 25 32 -6 26 -33 27 -64 4 -64
-12 0 -8 -6 14 -20 37 -22 53 -48 53 -85 0 -18 -6 -29 -20 -32 -23 -6 -27 -23
-5 -23 21 0 20 -48 -2 -72 -27 -30 -69 -23 -95 17 -17 25 -30 35 -48 34 -24 0
-24 -1 -4 -9 12 -4 24 -18 27 -29 4 -18 1 -21 -29 -21 -32 0 -74 28 -74 49 0
4 9 20 21 35 25 31 8 35 -21 4 -22 -24 -25 -45 -10 -68 11 -18 -5 -30 -44 -30
-28 0 -29 1 -11 20 9 10 20 41 22 67 3 26 10 54 16 61 7 8 5 12 -7 12 -9 0
-16 -5 -16 -10 0 -7 -14 -9 -37 -5 l-38 6 33 -15 c26 -12 32 -21 32 -46 0 -43
-36 -76 -93 -84 -116 -18 -193 30 -166 102 12 32 63 30 85 -3 20 -30 10 -49
-23 -40 -18 4 -24 2 -21 -7 3 -7 18 -13 34 -14 16 0 37 -4 47 -8 28 -13 61 1
79 33 16 30 16 30 -10 33 -20 2 -28 9 -29 28 -4 36 38 63 108 68 68 5 94 -7
114 -53 8 -20 21 -35 30 -35 15 0 15 1 1 16 -9 8 -16 21 -16 28 0 19 -41 54
-72 61 -37 9 -35 31 5 55 18 12 25 20 16 20 -21 0 -69 -38 -69 -53 0 -17 -82
-34 -131 -28 -38 6 -42 9 -56 50 -8 24 -12 55 -8 68 6 24 9 25 51 20 33 -3 43
-2 35 6 -6 6 -29 11 -50 11 -28 1 -45 7 -55 21 -22 29 -20 33 17 44 39 11 47
12 71 2z m-104 -66 c9 -16 15 -39 12 -51 -2 -12 1 -31 7 -42 10 -18 7 -20 -32
-25 -31 -3 -49 0 -70 15 -27 19 -28 19 -26 1 2 -10 -1 -28 -5 -40 -11 -35 2
-63 29 -63 31 0 42 18 13 22 -14 2 -23 10 -23 21 0 15 11 19 68 23 65 4 67 3
57 -16 -6 -10 -22 -27 -37 -37 -14 -10 -41 -32 -59 -50 l-32 -32 -26 20 c-27
21 -46 73 -46 125 0 66 72 112 111 71 19 -21 25 -13 13 17 -3 9 -12 16 -19 16
-23 0 -28 20 -9 41 24 27 54 20 74 -16z m124 -173 c3 -5 -4 -16 -15 -25 -26
-22 -24 -62 3 -81 16 -12 19 -19 11 -27 -18 -18 -48 -1 -61 36 -7 18 -22 37
-33 40 -28 9 -19 27 22 47 37 19 65 23 73 10z"/>
<path d="M1520 680 c0 -28 3 -30 35 -30 32 0 35 2 35 30 0 28 -3 30 -35 30
-32 0 -35 -2 -35 -30z"/>
<path d="M3030 680 c0 -28 2 -30 40 -30 38 0 40 2 40 30 0 28 -2 30 -40 30
-38 0 -40 -2 -40 -30z"/>
<path d="M1190 505 l0 -185 35 0 34 0 3 118 3 117 19 -117 20 -118 32 0 c37 0
37 0 55 115 18 123 28 123 29 -2 l0 -113 30 0 30 0 0 185 0 185 -55 0 c-61 0
-55 11 -75 -134 -5 -37 -11 -70 -13 -72 -2 -2 -10 43 -17 101 l-13 105 -58 0
-59 0 0 -185z"/>
<path d="M1950 661 c0 -28 -2 -29 -34 -24 -26 4 -39 0 -55 -16 -19 -19 -21
-32 -21 -141 0 -107 2 -122 20 -140 22 -22 60 -26 78 -8 9 9 12 9 12 0 0 -7
16 -12 40 -12 l40 0 0 185 0 185 -40 0 c-38 0 -40 -2 -40 -29z m0 -181 c0 -79
-3 -100 -14 -100 -21 0 -26 23 -26 109 0 79 3 91 27 91 10 0 13 -23 13 -100z"/>
<path d="M2060 505 l0 -185 65 0 c71 0 99 16 111 65 10 39 -2 117 -19 130 -14
10 -14 12 1 21 11 8 16 26 16 64 0 72 -22 90 -110 90 l-64 0 0 -185z m100 85
c0 -29 -4 -40 -15 -40 -11 0 -15 11 -15 40 0 29 4 40 15 40 11 0 15 -11 15
-40z m8 -129 c5 -35 -7 -71 -23 -71 -11 0 -15 13 -15 51 0 43 3 50 18 47 9 -2
18 -14 20 -27z"/>
<path d="M2270 505 l0 -185 35 0 35 0 0 185 0 185 -35 0 -35 0 0 -185z"/>
<path d="M1520 480 l0 -160 35 0 35 0 0 160 0 160 -35 0 -35 0 0 -160z"/>
<path d="M1620 480 l0 -160 40 0 40 0 0 131 c0 119 2 130 18 127 15 -3 17 -19
20 -131 l3 -127 34 0 35 0 0 140 c0 127 -2 142 -20 160 -24 24 -53 26 -74 4
-15 -14 -16 -14 -16 0 0 12 -10 16 -40 16 l-40 0 0 -160z"/>
<path d="M2403 616 c-27 -23 -28 -28 -31 -130 l-4 -106 32 -31 c28 -29 35 -31
78 -26 72 8 82 27 82 154 0 102 -1 105 -29 134 -38 37 -88 39 -128 5z m81 -52
c3 -9 6 -46 6 -84 0 -77 -6 -100 -26 -100 -11 0 -14 21 -14 100 0 79 3 100 14
100 8 0 17 -7 20 -16z"/>
<path d="M2614 626 c-16 -12 -19 -29 -22 -113 -2 -54 1 -110 7 -125 12 -32 55
-47 83 -29 17 11 19 10 16 -6 -3 -14 -13 -18 -46 -18 -46 0 -75 -26 -54 -47
16 -16 99 -22 131 -9 44 19 51 47 51 211 l0 150 -40 0 c-24 0 -40 -5 -40 -12
0 -9 -3 -9 -12 0 -16 16 -50 15 -74 -2z m86 -131 c0 -69 -3 -85 -15 -85 -12 0
-15 16 -15 85 0 69 3 85 15 85 12 0 15 -16 15 -85z"/>
<path d="M2834 626 c-16 -12 -19 -29 -22 -113 -2 -54 1 -110 7 -125 12 -32 55
-47 83 -29 17 11 19 10 16 -6 -3 -14 -13 -18 -46 -18 -46 0 -75 -26 -54 -47
16 -16 99 -22 131 -9 44 19 51 47 51 211 l0 150 -40 0 c-24 0 -40 -5 -40 -12
0 -9 -3 -9 -12 0 -16 16 -50 15 -74 -2z m86 -131 c0 -69 -3 -85 -15 -85 -12 0
-15 16 -15 85 0 69 3 85 15 85 12 0 15 -16 15 -85z"/>
<path d="M3030 480 l0 -160 40 0 40 0 0 160 0 160 -40 0 -40 0 0 -160z"/>
<path d="M3140 480 l0 -160 35 0 34 0 3 127 c3 112 5 128 21 131 15 3 17 -8
17 -127 l0 -131 35 0 35 0 0 143 c0 127 -2 146 -18 160 -24 22 -50 22 -74 0
-17 -15 -18 -15 -18 0 0 13 -9 17 -35 17 l-35 0 0 -160z"/>
<path d="M3376 625 c-34 -34 -34 -218 -1 -255 20 -22 46 -25 76 -10 23 13 26
-2 4 -20 -9 -8 -29 -10 -50 -7 -28 5 -37 2 -45 -13 -14 -26 -14 -26 20 -40 44
-18 120 -7 142 20 16 19 18 43 18 181 l0 159 -34 0 c-19 0 -36 -6 -39 -12 -4
-10 -7 -10 -18 0 -18 17 -54 15 -73 -3z m92 -110 c4 -72 -4 -105 -23 -105 -12
0 -15 17 -15 86 0 76 2 85 18 82 13 -3 18 -15 20 -63z"/>
<path d="M761 214 c0 -11 3 -14 6 -6 3 7 2 16 -1 19 -3 4 -6 -2 -5 -13z"/>
</g>
</svg>
